<svg width="65" height="65" viewBox="0 0 65 65" fill="none" xmlns="http://www.w3.org/2000/svg">
<path d="M32.0019 64.0038C49.676 64.0038 64.0038 49.676 64.0038 32.0019C64.0038 14.3277 49.676 0 32.0019 0C14.3277 0 0 14.3277 0 32.0019C0 49.676 14.3277 64.0038 32.0019 64.0038Z" fill="#F16D24"/>
<path d="M20.2104 30.0196C21.5126 30.0196 22.5682 28.2395 22.5682 26.0437C22.5682 23.8479 21.5126 22.0679 20.2104 22.0679C18.9083 22.0679 17.8527 23.8479 17.8527 26.0437C17.8527 28.2395 18.9083 30.0196 20.2104 30.0196Z" fill="#303030"/>
<path d="M46.1491 26.0437C46.1491 28.24 45.0941 30.0196 43.7914 30.0196C42.4886 30.0196 41.4337 28.24 41.4337 26.0437C41.4337 23.8475 42.4886 22.0679 43.7914 22.0679C45.0941 22.0679 46.1491 23.8475 46.1491 26.0437Z" fill="#303030"/>
<path d="M45.1166 46.2232C45.9426 47.0229 47.2604 46.1369 46.8361 45.0706C44.4709 39.1613 38.6967 34.9903 31.9427 34.9903C25.1887 34.9903 19.606 39.0262 17.1732 44.7778C16.7302 45.8253 18.0592 46.7338 18.8777 45.9416C23.5593 41.4027 33.5045 34.9415 45.1166 46.2232Z" fill="#303030"/>
<path d="M19.6984 13.3564L17.5533 15.5014L24.7131 22.6611L26.8581 20.5161L19.6984 13.3564Z" fill="#303030"/>
<path d="M46.4486 15.5015L44.3036 13.3565L37.1438 20.5163L39.2888 22.6613L46.4486 15.5015Z" fill="#303030"/>
</svg>
