<svg width="65" height="65" viewBox="0 0 65 65" fill="none" xmlns="http://www.w3.org/2000/svg">
<path d="M64.0038 32.0019C64.0038 14.3277 49.676 0 32.0019 0C14.3277 0 0 14.3277 0 32.0019C0 49.676 14.3277 64.0038 32.0019 64.0038C49.676 64.0038 64.0038 49.676 64.0038 32.0019Z" fill="#F94343"/>
<path d="M50.9519 27.1547C50.9519 27.1247 50.9519 27.0946 50.9519 27.0646C50.9519 21.4369 46.8822 16.2859 40.7626 16.2859C35.9008 16.2859 33.0813 19.7812 32.1202 23.0512C31.159 19.7812 28.3395 16.2859 23.4777 16.2859C17.3581 16.2859 13.2885 21.4369 13.2885 27.0646C13.2885 27.0946 13.2885 27.1247 13.2885 27.1547C13.2547 28.3786 13.2885 40.8355 32.1126 50.9909C50.9406 40.8355 50.9706 28.3786 50.9368 27.1547H50.9519Z" fill="white"/>
</svg>
