<svg width="24" height="24" viewBox="0 0 24 24" fill="none" xmlns="http://www.w3.org/2000/svg">
<path d="M7.30176 18.1126L10.5244 20.4225C10.9402 20.8075 11.8758 21 12.4996 21H16.4499C17.6974 21 19.0488 20.1338 19.3607 18.9788L21.8556 11.9528C22.3754 10.6054 21.4398 9.45045 19.8805 9.45045H15.7222C15.0985 9.45045 14.5787 8.96921 14.6827 8.29549L15.2024 5.21561C15.4103 4.34939 14.7866 3.38693 13.851 3.09819C13.0194 2.80945 11.9798 3.19444 11.564 3.77191L7.30176 9.64294" stroke="#292D32" stroke-width="1.5" stroke-miterlimit="10"/>
<path d="M2 18.1126V8.68047C2 7.33302 2.62374 6.85179 4.07913 6.85179H5.11869C6.57408 6.85179 7.19781 7.33302 7.19781 8.68047V18.1126C7.19781 19.4601 6.57408 19.9413 5.11869 19.9413H4.07913C2.62374 19.9413 2 19.4601 2 18.1126Z" stroke="#292D32" stroke-width="1.5" stroke-linecap="round" stroke-linejoin="round"/>
</svg>
