<svg width="65" height="65" viewBox="0 0 65 65" fill="none" xmlns="http://www.w3.org/2000/svg">
<path d="M32.0019 64.0038C49.676 64.0038 64.0038 49.676 64.0038 32.0019C64.0038 14.3277 49.676 0 32.0019 0C14.3277 0 0 14.3277 0 32.0019C0 49.676 14.3277 64.0038 32.0019 64.0038Z" fill="#4A85D3"/>
<path d="M48.6521 24.6934H37.5431C37.2615 24.6934 37.0475 24.4268 37.1226 24.1565C37.5731 22.5534 37.6144 20.8114 37.6144 19.1708C37.6144 18.2622 37.6595 17.2335 37.5581 16.2386C37.4567 15.2287 37.2052 14.2564 36.612 13.4867C35.9512 12.6345 34.9676 12 33.8751 12C31.3372 12 30.9355 14.4854 30.6989 16.5014C30.4249 18.8516 30.316 21.2807 29.2761 23.4469C28.5477 24.9637 27.519 26.2664 25.9009 26.9047C24.6582 27.3965 23.7422 27.7794 22.4319 28.0347C22.2292 28.076 22.0828 28.2487 22.0828 28.4552V44.8804C22.0828 45.1207 22.278 45.3121 22.5145 45.3121H27.061C27.1999 45.3121 27.3276 45.3797 27.4102 45.4923C28.3074 46.6937 29.7378 47.4746 31.3559 47.4746H45.5961C47.676 47.4746 49.373 45.7739 49.373 43.6978C49.373 43.1609 49.2416 42.6503 49.0125 42.1998C48.9224 42.0196 48.9675 41.8018 49.1252 41.678C49.8948 41.0622 50.3941 39.6619 50.3941 38.6069V38.1752C50.3941 37.6383 50.2627 37.1277 50.0337 36.6772C49.9436 36.497 49.9887 36.2792 50.1464 36.1553C50.916 35.5396 51.4153 34.5973 51.4153 33.5423V33.1106C51.4153 32.5737 51.2839 32.0631 51.0549 31.6126C50.9648 31.4324 51.0098 31.2146 51.1675 31.0907C51.9372 30.475 52.4365 29.5327 52.4365 28.4777C52.4365 26.3978 50.7358 24.7009 48.6596 24.7009L48.6521 24.6934Z" fill="white"/>
<path d="M18.7377 26.1763H12.0287C11.4606 26.1763 11 26.6369 11 27.205V45.9616C11 46.5298 11.4606 46.9903 12.0287 46.9903H18.7377C19.3058 46.9903 19.7664 46.5298 19.7664 45.9616V27.205C19.7664 26.6369 19.3058 26.1763 18.7377 26.1763Z" fill="white"/>
</svg>
